<?xml version="1.0" encoding="UTF-8"?><svg id="Artwork" xmlns="http://www.w3.org/2000/svg" viewBox="0 0 654.07 191.79"><defs><style>.cls-1{fill:#ffff13;stroke-width:0px;}</style></defs><g id="Hello_Yellow"><path class="cls-1" d="m28.93,120.13v-16.94H0v-63.58h28.93V0h71.92v108.93c0,18.76,12.77,25.28,26.84,25.28,7.82,0,15.64-1.56,23.19-4.17v50.55c-15.37,7.56-32.57,11.21-49.51,11.21-44.04,0-72.44-24.23-72.44-71.66Zm81.04-48.21c0-21.11,14.59-36.48,36.48-36.48s36.48,15.37,36.48,36.48-14.59,36.48-36.48,36.48-36.48-15.37-36.48-36.48Zm82.35,63.58V39.61h71.92v90.42c0,14.59,6.78,20.07,15.9,20.07,9.64,0,17.72-5.47,17.72-20.07V39.61h71.92v148.01h-69.84v-26.32c-10.68,18.76-24.5,30.49-53.94,30.49s-53.68-15.64-53.68-56.29Zm263.45,25.8v26.32h-71.92V0h71.92v65.93c9.9-14.85,25.28-30.49,51.6-30.49,35.44,0,63.84,26.58,63.84,78.18s-28.4,78.18-63.84,78.18c-26.32,0-41.69-15.64-51.6-30.49Zm43.52-47.69c0-23.45-8.34-36.48-22.93-36.48s-22.93,13.03-22.93,36.48,8.08,36.48,22.93,36.48,22.93-13.03,22.93-36.48Zm82.87-74.01h71.92v148.01h-71.92V39.61Z"/></g></svg>